# MagicaVoxel @ Ephtracy

# group
o 

# material
mtllib Door.mtl
usemtl palette

# normals
vn -1 0 0
vn 1 0 0
vn 0 0 1
vn 0 0 -1
vn 0 -1 0
vn 0 1 0

# texcoords
vt 0.197266 0.5
vt 0.271484 0.5
vt 0.279297 0.5
vt 0.302734 0.5
vt 0.310547 0.5
vt 0.958984 0.5

# verts
v 0.8 2 -2
v 0.8 2 -2.4
v 0.8 13.2 -2
v 0.8 13.2 -2.4
v 1.7 3.3 -1.9
v 1.7 3.3 -2
v 1.7 5.2 -1.9
v 1.7 5.2 -2
v 1.7 7 -1.9
v 1.7 7 -2
v 1.7 9 -1.9
v 1.7 9 -2
v 1.7 10.9 -1.9
v 1.7 10.9 -2
v 1.7 12.7 -1.9
v 1.7 12.7 -2
v 5.4 7.7 -1.6
v 5.4 7.7 -1.7
v 5.4 8 -1.6
v 5.4 8 -1.7
v 5.5 7.6 -1.6
v 5.5 7.6 -1.7
v 5.5 7.7 -1.6
v 5.5 7.7 -1.7
v 5.5 8 -1.6
v 5.5 8 -1.7
v 5.5 8.1 -1.6
v 5.5 8.1 -1.7
v 5.6 7.5 -1.6
v 5.6 7.5 -1.7
v 5.6 7.6 -1.6
v 5.6 7.6 -1.7
v 5.6 8.1 -1.6
v 5.6 8.1 -1.7
v 5.6 8.2 -1.6
v 5.6 8.2 -1.7
v 5.7 7.8 -1.7
v 5.7 7.8 -2
v 5.7 7.9 -1.7
v 5.7 7.9 -2
v 5.3 3.3 -1.9
v 5.3 3.3 -2
v 5.3 5.2 -1.9
v 5.3 5.2 -2
v 5.3 7 -1.9
v 5.3 7 -2
v 5.3 9 -1.9
v 5.3 9 -2
v 5.3 10.9 -1.9
v 5.3 10.9 -2
v 5.3 12.7 -1.9
v 5.3 12.7 -2
v 5.8 7.8 -1.7
v 5.8 7.8 -2
v 5.8 7.9 -1.7
v 5.8 7.9 -2
v 5.9 7.5 -1.6
v 5.9 7.5 -1.7
v 5.9 7.6 -1.6
v 5.9 7.6 -1.7
v 5.9 8.1 -1.6
v 5.9 8.1 -1.7
v 5.9 8.2 -1.6
v 5.9 8.2 -1.7
v 6 7.6 -1.6
v 6 7.6 -1.7
v 6 7.7 -1.6
v 6 7.7 -1.7
v 6 8 -1.6
v 6 8 -1.7
v 6 8.1 -1.6
v 6 8.1 -1.7
v 6.1 2 -2
v 6.1 2 -2.4
v 6.1 7.7 -1.6
v 6.1 7.7 -1.7
v 6.1 7.8 -1.6
v 6.1 7.8 -1.7
v 6.1 8 -1.6
v 6.1 8 -1.7
v 6.1 13.2 -2
v 6.1 13.2 -2.4
v 5.4 7.7 -1.6
v 5.4 8 -1.6
v 5.5 7.6 -1.6
v 5.5 7.7 -1.6
v 5.5 8 -1.6
v 5.5 8.1 -1.6
v 5.6 7.5 -1.6
v 5.6 7.6 -1.6
v 5.6 8.1 -1.6
v 5.6 8.2 -1.6
v 5.7 8.1 -1.6
v 5.7 8.2 -1.6
v 5.9 7.5 -1.6
v 5.9 7.6 -1.6
v 5.9 8 -1.6
v 5.9 8.1 -1.6
v 5.9 8.2 -1.6
v 6 7.6 -1.6
v 6 7.7 -1.6
v 6 7.8 -1.6
v 6 8 -1.6
v 6 8.1 -1.6
v 6.1 7.7 -1.6
v 6.1 7.8 -1.6
v 6.1 8 -1.6
v 1.7 3.3 -1.9
v 1.7 5.2 -1.9
v 1.7 7 -1.9
v 1.7 9 -1.9
v 1.7 10.9 -1.9
v 1.7 12.7 -1.9
v 2 8 -1.9
v 2 8.6 -1.9
v 2.1 8 -1.9
v 2.1 8.5 -1.9
v 2.5 8.5 -1.9
v 2.5 8.6 -1.9
v 4.5 3.6 -1.9
v 4.5 3.7 -1.9
v 4.5 12.4 -1.9
v 4.5 12.5 -1.9
v 4.9 3.7 -1.9
v 4.9 4.2 -1.9
v 4.9 12 -1.9
v 4.9 12.4 -1.9
v 5 3.6 -1.9
v 5 4.2 -1.9
v 5 12 -1.9
v 5 12.5 -1.9
v 5.3 3.3 -1.9
v 5.3 5.2 -1.9
v 5.3 7 -1.9
v 5.3 9 -1.9
v 5.3 10.9 -1.9
v 5.3 12.7 -1.9
v 0.8 2 -2
v 0.8 13.2 -2
v 1.2 2.2 -2
v 1.2 13.1 -2
v 1.3 2.3 -2
v 1.3 13 -2
v 1.7 3.3 -2
v 1.7 5.2 -2
v 1.7 7 -2
v 1.7 9 -2
v 1.7 10.9 -2
v 1.7 12.7 -2
v 5.3 3.3 -2
v 5.3 5.2 -2
v 5.3 7 -2
v 5.3 9 -2
v 5.3 10.9 -2
v 5.3 12.7 -2
v 5.7 2.3 -2
v 5.7 7.8 -2
v 5.7 7.9 -2
v 5.7 13 -2
v 5.8 2.2 -2
v 5.8 7.8 -2
v 5.8 7.9 -2
v 5.8 13.1 -2
v 6.1 2 -2
v 6.1 13.2 -2
v 5.4 7.7 -1.7
v 5.4 8 -1.7
v 5.5 7.6 -1.7
v 5.5 7.7 -1.7
v 5.5 8 -1.7
v 5.5 8.1 -1.7
v 5.6 7.5 -1.7
v 5.6 7.6 -1.7
v 5.6 8.1 -1.7
v 5.6 8.2 -1.7
v 5.7 7.8 -1.7
v 5.7 7.9 -1.7
v 5.7 8.1 -1.7
v 5.7 8.2 -1.7
v 5.8 7.8 -1.7
v 5.8 7.9 -1.7
v 5.9 7.5 -1.7
v 5.9 7.6 -1.7
v 5.9 8 -1.7
v 5.9 8.1 -1.7
v 5.9 8.2 -1.7
v 6 7.6 -1.7
v 6 7.7 -1.7
v 6 7.8 -1.7
v 6 8 -1.7
v 6 8.1 -1.7
v 6.1 7.7 -1.7
v 6.1 7.8 -1.7
v 6.1 8 -1.7
v 0.8 2 -2.4
v 0.8 13.2 -2.4
v 6.1 2 -2.4
v 6.1 13.2 -2.4
v 0.8 2 -2
v 6.1 2 -2
v 0.8 2 -2.4
v 6.1 2 -2.4
v 1.7 3.3 -1.9
v 5.3 3.3 -1.9
v 1.7 3.3 -2
v 5.3 3.3 -2
v 1.7 7 -1.9
v 5.3 7 -1.9
v 1.7 7 -2
v 5.3 7 -2
v 5.6 7.5 -1.6
v 5.9 7.5 -1.6
v 5.6 7.5 -1.7
v 5.9 7.5 -1.7
v 5.5 7.6 -1.6
v 5.6 7.6 -1.6
v 5.9 7.6 -1.6
v 6 7.6 -1.6
v 5.5 7.6 -1.7
v 5.6 7.6 -1.7
v 5.9 7.6 -1.7
v 6 7.6 -1.7
v 5.4 7.7 -1.6
v 5.5 7.7 -1.6
v 6 7.7 -1.6
v 6.1 7.7 -1.6
v 5.4 7.7 -1.7
v 5.5 7.7 -1.7
v 6 7.7 -1.7
v 6.1 7.7 -1.7
v 5.7 7.8 -1.7
v 5.8 7.8 -1.7
v 5.7 7.8 -2
v 5.8 7.8 -2
v 1.7 10.9 -1.9
v 5.3 10.9 -1.9
v 1.7 10.9 -2
v 5.3 10.9 -2
v 1.7 5.2 -1.9
v 5.3 5.2 -1.9
v 1.7 5.2 -2
v 5.3 5.2 -2
v 5.7 7.9 -1.7
v 5.8 7.9 -1.7
v 5.7 7.9 -2
v 5.8 7.9 -2
v 5.4 8 -1.6
v 5.5 8 -1.6
v 6 8 -1.6
v 6.1 8 -1.6
v 5.4 8 -1.7
v 5.5 8 -1.7
v 6 8 -1.7
v 6.1 8 -1.7
v 5.5 8.1 -1.6
v 5.6 8.1 -1.6
v 5.9 8.1 -1.6
v 6 8.1 -1.6
v 5.5 8.1 -1.7
v 5.6 8.1 -1.7
v 5.9 8.1 -1.7
v 6 8.1 -1.7
v 5.6 8.2 -1.6
v 5.7 8.2 -1.6
v 5.9 8.2 -1.6
v 5.6 8.2 -1.7
v 5.7 8.2 -1.7
v 5.9 8.2 -1.7
v 1.7 9 -1.9
v 5.3 9 -1.9
v 1.7 9 -2
v 5.3 9 -2
v 1.7 12.7 -1.9
v 5.3 12.7 -1.9
v 1.7 12.7 -2
v 5.3 12.7 -2
v 0.8 13.2 -2
v 6.1 13.2 -2
v 0.8 13.2 -2.4
v 6.1 13.2 -2.4

# faces
f 3/5/1 2/5/1 1/5/1
f 4/5/1 2/5/1 3/5/1
f 7/2/1 6/2/1 5/2/1
f 8/2/1 6/2/1 7/2/1
f 11/2/1 10/2/1 9/2/1
f 12/2/1 10/2/1 11/2/1
f 15/2/1 14/2/1 13/2/1
f 16/2/1 14/2/1 15/2/1
f 19/5/1 18/5/1 17/5/1
f 20/5/1 18/5/1 19/5/1
f 23/5/1 22/5/1 21/5/1
f 24/5/1 22/5/1 23/5/1
f 27/5/1 26/5/1 25/5/1
f 28/5/1 26/5/1 27/5/1
f 31/5/1 30/5/1 29/5/1
f 32/5/1 30/5/1 31/5/1
f 35/5/1 34/5/1 33/5/1
f 36/5/1 34/5/1 35/5/1
f 39/5/1 38/5/1 37/5/1
f 40/5/1 38/5/1 39/5/1
f 41/2/2 42/2/2 43/2/2
f 43/2/2 42/2/2 44/2/2
f 45/2/2 46/2/2 47/2/2
f 47/2/2 46/2/2 48/2/2
f 49/2/2 50/2/2 51/2/2
f 51/2/2 50/2/2 52/2/2
f 53/5/2 54/5/2 55/5/2
f 55/5/2 54/5/2 56/5/2
f 57/5/2 58/5/2 59/5/2
f 59/5/2 58/5/2 60/5/2
f 61/6/2 62/6/2 63/6/2
f 63/6/2 62/6/2 64/6/2
f 65/5/2 66/5/2 67/5/2
f 67/5/2 66/5/2 68/5/2
f 69/6/2 70/6/2 71/6/2
f 71/6/2 70/6/2 72/6/2
f 75/5/2 76/5/2 77/5/2
f 77/5/2 76/5/2 78/5/2
f 77/6/2 78/6/2 79/6/2
f 79/6/2 78/6/2 80/6/2
f 73/5/2 74/5/2 81/5/2
f 81/5/2 74/5/2 82/5/2
f 86/5/3 84/5/3 83/5/3
f 87/5/3 84/5/3 86/5/3
f 90/5/3 86/5/3 85/5/3
f 90/5/3 88/5/3 87/5/3
f 90/5/3 87/5/3 86/5/3
f 91/5/3 88/5/3 90/5/3
f 93/5/3 90/5/3 89/5/3
f 93/5/3 92/5/3 91/5/3
f 93/5/3 91/5/3 90/5/3
f 94/5/3 92/5/3 93/5/3
f 95/5/3 93/5/3 89/5/3
f 96/5/3 93/5/3 95/5/3
f 97/5/3 93/5/3 96/5/3
f 98/6/3 94/6/3 93/6/3
f 98/5/3 93/5/3 97/5/3
f 99/6/3 94/6/3 98/6/3
f 100/5/3 97/5/3 96/5/3
f 101/5/3 97/5/3 100/5/3
f 102/5/3 97/5/3 101/5/3
f 103/6/3 98/6/3 97/6/3
f 103/5/3 97/5/3 102/5/3
f 104/6/3 98/6/3 103/6/3
f 105/5/3 102/5/3 101/5/3
f 106/6/3 103/6/3 102/6/3
f 106/5/3 102/5/3 105/5/3
f 107/6/3 103/6/3 106/6/3
f 114/2/3 111/2/3 110/2/3
f 115/2/3 111/2/3 114/2/3
f 116/2/3 114/2/3 110/2/3
f 116/6/3 115/6/3 114/6/3
f 117/6/3 115/6/3 116/6/3
f 118/2/3 117/2/3 116/2/3
f 118/6/3 115/6/3 117/6/3
f 119/2/3 111/2/3 115/2/3
f 119/6/3 115/6/3 118/6/3
f 120/2/3 109/2/3 108/2/3
f 121/2/3 109/2/3 120/2/3
f 122/2/3 113/2/3 112/2/3
f 123/2/3 113/2/3 122/2/3
f 124/2/3 109/2/3 121/2/3
f 124/6/3 121/6/3 120/6/3
f 125/2/3 109/2/3 124/2/3
f 126/2/3 122/2/3 112/2/3
f 127/6/3 123/6/3 122/6/3
f 127/2/3 122/2/3 126/2/3
f 128/2/3 120/2/3 108/2/3
f 128/6/3 124/6/3 120/6/3
f 128/6/3 125/6/3 124/6/3
f 129/2/3 109/2/3 125/2/3
f 129/6/3 125/6/3 128/6/3
f 130/2/3 126/2/3 112/2/3
f 130/6/3 127/6/3 126/6/3
f 131/2/3 113/2/3 123/2/3
f 131/6/3 127/6/3 130/6/3
f 131/6/3 123/6/3 127/6/3
f 132/2/3 129/2/3 128/2/3
f 132/2/3 128/2/3 108/2/3
f 133/2/3 109/2/3 129/2/3
f 133/2/3 129/2/3 132/2/3
f 134/2/3 118/2/3 116/2/3
f 134/2/3 116/2/3 110/2/3
f 134/2/3 119/2/3 118/2/3
f 135/2/3 111/2/3 119/2/3
f 135/2/3 119/2/3 134/2/3
f 136/2/3 130/2/3 112/2/3
f 136/2/3 131/2/3 130/2/3
f 137/2/3 113/2/3 131/2/3
f 137/2/3 131/2/3 136/2/3
f 140/5/3 139/5/3 138/5/3
f 141/5/3 139/5/3 140/5/3
f 142/1/3 141/1/3 140/1/3
f 143/1/3 141/1/3 142/1/3
f 144/5/3 143/5/3 142/5/3
f 145/5/3 143/5/3 144/5/3
f 146/5/3 143/5/3 145/5/3
f 147/5/3 143/5/3 146/5/3
f 148/5/3 143/5/3 147/5/3
f 149/5/3 143/5/3 148/5/3
f 150/5/3 144/5/3 142/5/3
f 151/5/3 146/5/3 145/5/3
f 152/5/3 146/5/3 151/5/3
f 153/5/3 148/5/3 147/5/3
f 154/5/3 148/5/3 153/5/3
f 155/5/3 143/5/3 149/5/3
f 156/1/3 142/1/3 140/1/3
f 156/5/3 155/5/3 154/5/3
f 156/5/3 154/5/3 153/5/3
f 156/5/3 152/5/3 151/5/3
f 156/5/3 153/5/3 152/5/3
f 156/5/3 150/5/3 142/5/3
f 156/5/3 151/5/3 150/5/3
f 157/5/3 155/5/3 156/5/3
f 158/5/3 155/5/3 157/5/3
f 159/5/3 143/5/3 155/5/3
f 159/5/3 155/5/3 158/5/3
f 159/1/3 141/1/3 143/1/3
f 160/5/3 140/5/3 138/5/3
f 160/1/3 157/1/3 156/1/3
f 160/1/3 156/1/3 140/1/3
f 161/1/3 157/1/3 160/1/3
f 162/1/3 159/1/3 158/1/3
f 163/1/3 141/1/3 159/1/3
f 163/5/3 139/5/3 141/5/3
f 163/1/3 159/1/3 162/1/3
f 164/5/3 162/5/3 161/5/3
f 164/5/3 161/5/3 160/5/3
f 164/5/3 163/5/3 162/5/3
f 164/5/3 160/5/3 138/5/3
f 165/5/3 139/5/3 163/5/3
f 165/5/3 163/5/3 164/5/3
f 166/5/4 167/5/4 169/5/4
f 169/5/4 167/5/4 170/5/4
f 168/5/4 169/5/4 173/5/4
f 170/5/4 171/5/4 173/5/4
f 169/5/4 170/5/4 173/5/4
f 173/5/4 171/5/4 174/5/4
f 172/5/4 173/5/4 176/5/4
f 174/5/4 175/5/4 176/5/4
f 173/5/4 174/5/4 176/5/4
f 176/5/4 175/5/4 177/5/4
f 177/5/4 175/5/4 178/5/4
f 178/5/4 175/5/4 179/5/4
f 172/5/4 176/5/4 180/5/4
f 177/5/4 178/5/4 181/5/4
f 172/5/4 180/5/4 182/5/4
f 180/5/4 181/5/4 182/5/4
f 182/5/4 181/5/4 183/5/4
f 181/5/4 178/5/4 184/5/4
f 183/5/4 181/5/4 184/5/4
f 178/6/4 179/6/4 185/6/4
f 184/5/4 178/5/4 185/5/4
f 185/6/4 179/6/4 186/6/4
f 183/5/4 184/5/4 187/5/4
f 187/5/4 184/5/4 188/5/4
f 188/5/4 184/5/4 189/5/4
f 184/6/4 185/6/4 190/6/4
f 189/5/4 184/5/4 190/5/4
f 190/6/4 185/6/4 191/6/4
f 188/5/4 189/5/4 192/5/4
f 189/6/4 190/6/4 193/6/4
f 192/5/4 189/5/4 193/5/4
f 193/6/4 190/6/4 194/6/4
f 195/5/4 196/5/4 197/5/4
f 197/5/4 196/5/4 198/5/4
f 201/5/5 200/5/5 199/5/5
f 202/5/5 200/5/5 201/5/5
f 205/2/5 204/2/5 203/2/5
f 206/2/5 204/2/5 205/2/5
f 209/2/5 208/2/5 207/2/5
f 210/2/5 208/2/5 209/2/5
f 213/5/5 212/5/5 211/5/5
f 214/5/5 212/5/5 213/5/5
f 219/5/5 216/5/5 215/5/5
f 220/5/5 216/5/5 219/5/5
f 221/5/5 218/5/5 217/5/5
f 222/5/5 218/5/5 221/5/5
f 227/5/5 224/5/5 223/5/5
f 228/5/5 224/5/5 227/5/5
f 229/5/5 226/5/5 225/5/5
f 230/5/5 226/5/5 229/5/5
f 233/5/5 232/5/5 231/5/5
f 234/5/5 232/5/5 233/5/5
f 237/2/5 236/2/5 235/2/5
f 238/2/5 236/2/5 237/2/5
f 239/2/6 240/2/6 241/2/6
f 241/2/6 240/2/6 242/2/6
f 243/5/6 244/5/6 245/5/6
f 245/5/6 244/5/6 246/5/6
f 247/5/6 248/5/6 251/5/6
f 251/5/6 248/5/6 252/5/6
f 249/6/6 250/6/6 253/6/6
f 253/6/6 250/6/6 254/6/6
f 255/5/6 256/5/6 259/5/6
f 259/5/6 256/5/6 260/5/6
f 257/6/6 258/6/6 261/6/6
f 261/6/6 258/6/6 262/6/6
f 263/5/6 264/5/6 266/5/6
f 264/6/6 265/6/6 267/6/6
f 266/5/6 264/5/6 267/5/6
f 267/6/6 265/6/6 268/6/6
f 269/2/6 270/2/6 271/2/6
f 271/2/6 270/2/6 272/2/6
f 273/2/6 274/2/6 275/2/6
f 275/2/6 274/2/6 276/2/6
f 277/5/6 278/5/6 279/5/6
f 279/5/6 278/5/6 280/5/6
